<?xml version="1.0" standalone="no"?>
<!DOCTYPE svg PUBLIC "-//W3C//DTD SVG 20010904//EN"
 "http://www.w3.org/TR/2001/REC-SVG-20010904/DTD/svg10.dtd">
<svg version="1.0" xmlns="http://www.w3.org/2000/svg"
 width="4096.000000pt" height="1503.000000pt" viewBox="0 0 4096.000000 1503.000000"
 preserveAspectRatio="xMidYMid meet">

<g transform="translate(0.000000,1503.000000) scale(0.100000,-0.100000)"
fill="#000000" stroke="none">
<path d="M22375 14842 l-340 -185 -875 -1005 c-481 -552 -1112 -1277 -1403
-1610 -467 -535 -526 -607 -514 -621 8 -9 118 -141 246 -293 l231 -277 -58
-34 c-31 -19 -148 -82 -259 -141 l-202 -107 -803 713 c-442 392 -961 854
-1155 1026 -193 171 -358 312 -365 312 -7 -1 -164 -88 -348 -194 l-335 -193
-50 -96 c-27 -52 -54 -99 -59 -104 -5 -5 -6 101 -2 254 4 150 3 264 -2 267 -5
3 -854 -264 -1886 -594 l-1878 -599 -331 -187 c-183 -103 -335 -190 -339 -193
-7 -7 87 -1989 95 -1997 3 -3 137 29 298 70 162 41 305 77 319 78 l24 3 17
-185 c10 -102 18 -199 18 -216 l1 -30 -52 8 c-102 16 -500 21 -634 9 -321 -30
-625 -102 -919 -218 -214 -85 -387 -175 -605 -317 -63 -41 -115 -74 -116 -73
-1 1 4 34 11 72 102 536 73 1042 -84 1498 -200 576 -622 1131 -1142 1504 -155
110 -475 305 -629 383 -239 120 -601 241 -865 289 -124 23 -527 81 -671 97
-200 21 -815 30 -1052 15 -1179 -77 -2394 -428 -3612 -1042 -400 -201 -588
-310 -1144 -663 l-349 -221 -276 -293 c-152 -162 -275 -297 -274 -302 2 -8
1812 -3061 1819 -3069 2 -3 158 61 346 142 188 81 342 146 343 144 1 -1 663
-1501 1471 -3333 l1469 -3331 45 13 c25 7 654 209 1398 448 l1354 435 325 208
c180 114 337 215 350 223 12 8 23 20 23 27 0 7 -126 497 -280 1089 -155 592
-280 1078 -278 1079 2 2 32 -44 68 -102 247 -400 575 -724 945 -935 307 -174
681 -293 1039 -329 154 -15 533 -6 676 16 404 62 801 203 1146 406 190 112
525 352 631 452 18 17 34 29 36 26 2 -2 24 -233 49 -512 25 -280 48 -510 50
-512 2 -2 593 83 1314 190 l1311 193 362 181 361 181 0 830 c0 457 2 830 4
830 2 0 503 -247 1113 -549 1452 -719 3483 -1725 3603 -1785 l95 -48 337 176
c185 97 341 176 346 176 6 0 13 7 16 16 3 9 6 524 6 1145 l0 1129 23 4 c12 3
82 17 156 31 392 77 826 248 1239 488 75 44 112 61 112 51 0 -8 -45 -290 -100
-626 -56 -335 -99 -612 -97 -615 6 -5 2935 -473 2963 -473 11 0 143 66 294
146 162 87 275 142 279 135 4 -5 110 -210 235 -455 126 -246 233 -446 237
-446 4 0 114 51 243 114 222 108 236 113 241 93 2 -12 18 -139 35 -282 17
-143 34 -263 38 -266 4 -4 151 -32 327 -63 176 -32 928 -165 1672 -296 744
-132 1361 -240 1372 -240 23 0 701 358 701 370 0 11 -118 766 -126 801 l-5 26
133 17 c296 38 514 96 758 200 58 24 106 44 106 43 1 -1 -29 -269 -66 -594
-59 -523 -65 -593 -51 -597 9 -2 514 -75 1122 -162 l1107 -157 6 -341 c3 -188
9 -394 12 -458 l6 -118 82 -25 c44 -15 567 -181 1161 -370 l1080 -344 355 179
355 178 1528 4602 c840 2532 1526 4605 1523 4607 -3 3 -162 43 -353 90 -2198
532 -2829 683 -2843 681 -8 -2 -118 -61 -243 -132 -125 -71 -230 -127 -232
-124 -2 2 -23 91 -45 198 -22 107 -42 195 -43 196 -1 0 -456 101 -1012 223
-555 123 -1398 308 -1871 412 l-861 190 -339 -193 -339 -194 0 -264 c0 -146 4
-567 8 -936 l9 -671 -165 -6 c-598 -24 -1174 -211 -1672 -543 -44 -29 -82 -50
-86 -46 -3 4 -32 174 -64 377 -199 1281 -494 3135 -499 3144 -5 8 -366 11
-1250 11 l-1242 0 -334 -191 c-184 -105 -340 -197 -346 -205 -9 -12 -168 -14
-1010 -15 l-999 0 -335 -192 -335 -193 -69 -414 c-38 -228 -70 -417 -72 -418
-1 -2 -49 35 -106 83 -549 463 -1203 729 -1935 787 -84 7 -153 15 -153 18 1 3
487 266 1080 585 594 319 1080 584 1080 590 0 14 -1545 2319 -1556 2321 -5 1
-162 -82 -349 -184z m624 -1426 c215 -291 389 -531 388 -532 -5 -6 -1398 -700
-1845 -920 l-453 -223 -73 111 -74 110 516 621 c856 1033 1137 1367 1144 1365
4 -2 183 -241 397 -532z m6974 -3562 l260 -1691 -95 -119 c-388 -485 -623
-1012 -715 -1604 -23 -146 -26 -605 -5 -745 62 -411 199 -780 409 -1098 240
-364 595 -676 973 -855 63 -30 117 -56 120 -59 2 -2 18 -94 35 -204 l32 -201
-46 7 c-25 4 -176 26 -336 50 -159 23 -550 82 -867 131 l-577 88 -5 26 c-3 14
-114 743 -246 1620 -132 877 -243 1605 -246 1618 -2 13 -10 22 -17 20 -15 -5
-60 -118 -407 -1018 -156 -404 -286 -738 -290 -743 -8 -9 -80 143 -616 1298
-329 707 -427 911 -442 913 -11 2 -22 -3 -25 -10 -2 -8 -96 -594 -208 -1303
-111 -710 -204 -1292 -205 -1294 -2 -2 -58 6 -126 18 -68 11 -229 38 -358 60
-475 81 -1225 213 -1228 216 -2 2 50 327 116 722 l120 718 97 95 c174 170 665
679 665 689 0 6 -121 119 -270 253 -163 146 -270 249 -270 260 0 14 429 2582
549 3288 l27 155 869 3 870 2 214 -1182 c118 -651 218 -1193 223 -1206 4 -13
14 -22 20 -20 8 3 42 169 90 444 227 1275 416 2323 423 2342 3 10 132 12 616
10 l612 -3 260 -1691z m-14679 1574 c3 -29 12 -172 21 -318 8 -146 37 -645 65
-1109 27 -464 50 -845 50 -847 0 -2 7 -4 15 -4 8 0 108 132 223 293 115 160
489 685 831 1165 342 479 627 872 632 872 5 0 112 -97 237 -217 125 -119 482
-459 795 -756 312 -297 567 -545 567 -551 0 -5 -42 -53 -92 -105 -438 -453
-2173 -2297 -2173 -2309 0 -12 221 -103 855 -355 470 -186 954 -377 1074 -425
l220 -87 65 -110 c143 -238 283 -416 477 -605 495 -482 1154 -792 1886 -887
l128 -17 0 -747 0 -748 -287 140 c-159 77 -1384 690 -2723 1362 -1652 828
-2442 1219 -2453 1214 -17 -6 -17 -86 -11 -1435 l7 -1429 -159 -22 c-157 -22
-331 -46 -839 -116 -143 -20 -287 -40 -319 -45 -33 -5 -62 -8 -64 -6 -2 2 -26
265 -53 585 l-50 580 59 108 c196 354 325 745 389 1178 25 168 25 621 1 782
-67 440 -219 831 -454 1170 -70 101 -198 255 -263 318 -33 31 -41 46 -41 75 0
46 -189 2328 -195 2358 -3 12 -13 22 -21 22 -9 0 -146 -34 -304 -75 -158 -41
-295 -75 -303 -75 -12 0 -16 37 -21 238 -4 130 -9 258 -12 283 l-5 45 158 48
c87 26 484 144 883 262 399 119 826 246 950 284 124 37 230 68 237 69 7 1 14
-20 17 -51z m-8693 -232 c430 -43 765 -107 1024 -196 273 -94 647 -307 916
-522 392 -312 693 -764 802 -1203 46 -184 57 -287 58 -505 0 -403 -97 -800
-300 -1225 -368 -769 -1068 -1528 -1888 -2045 -81 -52 -102 -70 -103 -88 0
-13 207 -818 460 -1789 254 -971 459 -1767 458 -1768 -13 -11 -1470 -477
-1475 -471 -2 2 -420 932 -928 2067 -1966 4394 -2164 4834 -2178 4837 -7 2
-178 -78 -378 -178 -200 -99 -370 -179 -377 -178 -8 2 -214 341 -458 753 -595
1004 -647 1093 -640 1103 8 13 285 180 461 277 77 43 246 131 375 196 1122
562 2240 881 3320 949 194 12 670 4 851 -14z m15797 -445 c410 -63 773 -201
1096 -416 152 -101 278 -208 429 -365 l127 -132 -62 -67 c-34 -36 -110 -118
-169 -181 -59 -63 -542 -578 -1073 -1145 -545 -581 -965 -1037 -963 -1045 4
-22 279 -20 407 3 503 92 817 258 1164 618 l141 146 210 -190 c116 -104 376
-338 578 -520 l368 -330 -53 -55 c-29 -30 -116 -111 -193 -179 -469 -420 -989
-706 -1645 -904 -343 -103 -638 -165 -908 -189 -196 -18 -598 -8 -776 20 -737
113 -1350 482 -1710 1030 -195 296 -300 593 -357 1010 -20 144 -17 517 5 665
78 517 308 973 679 1346 326 329 707 563 1182 725 230 79 552 149 795 173 160
16 574 6 728 -18z m12957 -310 l1179 -237 123 -580 c68 -318 252 -1189 409
-1934 157 -745 290 -1359 295 -1365 6 -6 12 -6 18 0 5 6 174 694 375 1530 201
836 390 1615 419 1731 l52 211 900 -200 c495 -109 902 -201 905 -204 2 -2 -50
-169 -117 -371 -67 -202 -266 -803 -442 -1337 -668 -2026 -1325 -4018 -1658
-5025 -190 -575 -351 -1063 -358 -1085 -7 -26 -17 -39 -26 -37 -69 17 -1248
368 -1253 373 -1 2 -26 1037 -55 2299 -28 1262 -54 2337 -57 2388 -6 93 -18
114 -36 61 -4 -13 -152 -838 -328 -1833 -176 -996 -322 -1811 -323 -1812 -1
-2 -57 5 -122 16 -66 10 -372 58 -680 106 -308 48 -563 90 -568 94 -4 3 14
239 41 524 l48 518 75 65 c173 153 368 368 511 562 220 301 412 689 512 1033
157 541 162 1092 15 1596 -113 388 -316 738 -605 1042 l-88 92 12 136 c7 76
33 354 58 620 26 270 43 487 38 491 -5 4 -125 39 -268 77 l-259 69 6 90 c3 50
11 176 17 280 14 238 16 255 38 255 9 -1 548 -108 1197 -239z m-2367 -1782
c755 -82 1353 -548 1581 -1234 241 -723 60 -1558 -486 -2245 -96 -121 -330
-358 -448 -453 -223 -180 -544 -363 -800 -455 -592 -214 -1220 -198 -1723 43
-747 358 -1155 1168 -1027 2037 109 739 579 1444 1260 1890 332 218 722 363
1105 412 130 17 408 20 538 5z m-14723 -376 c-8 -169 6 -400 36 -607 11 -76
17 -141 15 -144 -7 -7 -696 259 -696 269 0 7 640 629 648 629 2 0 1 -66 -3
-147z m-6009 -154 c713 -69 1298 -468 1590 -1084 125 -265 183 -519 191 -842
6 -225 -4 -361 -42 -549 -173 -862 -780 -1643 -1590 -2047 -753 -375 -1586
-378 -2208 -7 -517 308 -841 800 -943 1435 -22 134 -25 465 -6 600 46 321 122
566 267 860 150 304 329 552 574 795 497 492 1097 779 1761 843 83 8 305 6
406 -4z"/>
<path d="M6719 9130 c-190 -22 -426 -91 -621 -183 -90 -42 -98 -48 -98 -74 0
-46 241 -858 533 -1793 238 -762 276 -875 293 -878 32 -5 362 219 565 383 124
100 326 300 404 400 235 301 338 585 339 935 1 310 -50 512 -179 706 -166 248
-460 431 -790 489 -109 19 -341 27 -446 15z m201 -817 c140 -33 284 -141 340
-257 77 -158 81 -499 8 -695 -19 -49 -113 -169 -125 -157 -4 4 -336 1064 -347
1109 -8 33 -13 33 124 0z"/>
<path d="M21344 9775 c-183 -32 -392 -119 -544 -226 -95 -67 -248 -221 -322
-324 -96 -137 -171 -302 -208 -460 -102 -436 27 -908 332 -1223 82 -85 204
-182 228 -182 13 0 77 65 177 178 504 567 1559 1765 1566 1778 6 10 -11 34
-60 85 -164 171 -380 293 -625 355 -88 22 -130 27 -283 30 -126 2 -205 -1
-261 -11z m234 -710 c51 -12 72 -21 68 -30 -7 -19 -787 -905 -796 -905 -9 0
-38 72 -64 159 -54 181 -11 429 104 605 66 101 108 142 158 155 156 42 384 49
530 16z"/>
<path d="M32366 8239 c-378 -37 -731 -243 -933 -547 -96 -145 -160 -342 -170
-522 -28 -513 295 -981 805 -1164 142 -51 261 -70 442 -70 241 0 402 38 605
142 540 278 782 934 536 1457 -54 115 -88 165 -111 165 -30 0 -34 -22 -22
-124 9 -74 9 -104 -3 -161 -44 -212 -219 -395 -452 -473 -69 -23 -94 -26 -223
-27 -164 0 -226 13 -346 70 -169 81 -296 225 -351 395 -26 83 -23 245 6 329
77 219 278 381 530 426 131 24 131 24 131 44 0 10 -6 23 -12 28 -13 10 -284
45 -323 42 -11 -1 -60 -6 -109 -10z"/>
<path d="M11749 7639 c-216 -23 -427 -100 -609 -222 -92 -62 -252 -220 -309
-304 -158 -236 -218 -499 -177 -773 74 -491 447 -873 957 -981 147 -31 390
-31 536 0 258 54 462 162 638 337 227 226 338 491 338 809 0 146 -12 225 -54
346 -37 107 -117 254 -156 286 -42 33 -52 -15 -32 -149 8 -59 8 -87 -5 -148
-47 -227 -227 -414 -471 -490 -95 -30 -273 -38 -372 -17 -252 54 -447 216
-524 437 -33 94 -33 248 0 343 47 138 156 269 290 346 77 45 133 66 250 91 83
19 104 31 94 57 -7 17 -24 20 -163 33 -126 11 -122 11 -231 -1z"/>
<path d="M38770 1565 l0 -95 140 0 140 0 0 -410 0 -410 105 0 105 0 2 408 3
407 138 3 137 3 0 94 0 95 -385 0 -385 0 0 -95z"/>
<path d="M39650 1155 l0 -505 100 0 100 0 0 407 c0 223 3 404 6 400 3 -3 63
-185 134 -404 l128 -398 58 -3 59 -3 130 402 130 403 3 -402 2 -402 100 0 100
0 0 505 0 505 -159 0 -159 0 -91 -266 c-50 -147 -94 -278 -97 -291 -4 -13 -9
-25 -13 -27 -4 -3 -51 128 -106 290 l-100 294 -162 0 -163 0 0 -505z"/>
</g>
</svg>
